<svg xmlns="http://www.w3.org/2000/svg" viewBox="0 0 512 512" role="img" aria-label="NexGen Binary logo">
  <defs>
    <linearGradient id="bg" x1="0" y1="0" x2="0" y2="1">
      <stop offset="0%" stop-color="#0b2748"/>
      <stop offset="100%" stop-color="#154c84"/>
    </linearGradient>
    <linearGradient id="shine" x1="0" y1="0" x2="1" y2="1">
      <stop offset="0%" stop-color="#47b2e4" stop-opacity=".12"/>
      <stop offset="100%" stop-color="#f48824" stop-opacity=".14"/>
    </linearGradient>
  </defs>
  <rect width="512" height="512" rx="96" fill="url(#bg)"/>
  <path d="M512 0H360l152 152z" fill="#f48824"/>
  <path d="M0 512V420l92 92z" fill="#f48824"/>
  <rect x="24" y="24" width="464" height="464" rx="88" fill="url(#shine)" stroke="#ffffff" stroke-width="8"/>
  <rect x="74" y="72" width="364" height="278" rx="26" fill="#ffffff" stroke="#dae7f5" stroke-width="2"/>
  <!-- N -->
  <path d="M120 300V120 M120 120L220 300 M220 300V120" stroke="#0a2540" stroke-width="20" fill="none" stroke-linecap="round" stroke-linejoin="round"/>
  <!-- B -->
  <path d="M282 120V300" stroke="#0a2540" stroke-width="20" fill="none" stroke-linecap="round"/>
  <path d="M282 122h36c40 0 65 18 65 43s-25 43-65 43h-36" stroke="#0a2540" stroke-width="16" fill="none" stroke-linecap="round" stroke-linejoin="round"/>
  <path d="M282 208h44c43 0 69 19 69 46s-26 46-69 46h-44" stroke="#0a2540" stroke-width="16" fill="none" stroke-linecap="round" stroke-linejoin="round"/>
  <path d="M238 210h30" stroke="#f48824" stroke-width="12" stroke-linecap="round"/>
  <rect x="88" y="372" width="336" height="10" rx="5" fill="#f48824"/>
  <text x="256" y="425" text-anchor="middle" font-family="Inter, Arial, sans-serif" font-size="34" font-weight="800" fill="#ffffff">NEXGEN BINARY</text>
  <text x="256" y="464" text-anchor="middle" font-family="Inter, Arial, sans-serif" font-size="20" fill="#dcecff">IT • SECURITY • CLOUD</text>
</svg>
