<svg xmlns="http://www.w3.org/2000/svg" viewBox="0 0 512 512" role="img" aria-label="NexGen Binary logo">
  <defs>
    <linearGradient id="bg" x1="0" y1="0" x2="1" y2="1">
      <stop offset="0%" stop-color="#0a2540"/>
      <stop offset="100%" stop-color="#164f8a"/>
    </linearGradient>
    <linearGradient id="glass" x1="0" y1="0" x2="1" y2="1">
      <stop offset="0%" stop-color="#ffffff" stop-opacity=".16"/>
      <stop offset="100%" stop-color="#ffffff" stop-opacity=".03"/>
    </linearGradient>
  </defs>
  <rect width="512" height="512" rx="96" fill="url(#bg)"/>
  <path d="M512 0H338l174 174z" fill="#f48824"/>
  <path d="M0 512V398l114 114z" fill="#f48824"/>
  <rect x="26" y="26" width="460" height="460" rx="86" fill="url(#glass)" stroke="#ffffff" stroke-width="7"/>
  <rect x="74" y="74" width="364" height="272" rx="26" fill="#f7fbff" stroke="#dce9f8" stroke-width="2"/>
  <path d="M118 298V122M118 122L214 298M214 298V122" stroke="#0a2540" stroke-width="18" fill="none" stroke-linecap="round" stroke-linejoin="round"/>
  <path d="M282 122V298" stroke="#0a2540" stroke-width="18" fill="none" stroke-linecap="round"/>
  <path d="M282 124h34c38 0 62 17 62 41s-24 41-62 41h-34" stroke="#0a2540" stroke-width="14" fill="none" stroke-linecap="round" stroke-linejoin="round"/>
  <path d="M282 206h42c40 0 66 18 66 44s-26 44-66 44h-42" stroke="#0a2540" stroke-width="14" fill="none" stroke-linecap="round" stroke-linejoin="round"/>
  <path d="M234 210h32" stroke="#f48824" stroke-width="10" stroke-linecap="round"/>
  <rect x="90" y="366" width="332" height="10" rx="5" fill="#f48824"/>
  <text x="256" y="425" text-anchor="middle" font-family="Inter, Arial, sans-serif" font-size="34" font-weight="800" fill="#ffffff">NEXGEN BINARY</text>
  <text x="256" y="462" text-anchor="middle" font-family="Inter, Arial, sans-serif" font-size="19" fill="#d6ebff">IT • SECURITY • CLOUD</text>
</svg>
